<svg width="115" height="48" viewBox="0 0 115 48" fill="none" xmlns="http://www.w3.org/2000/svg">
<g clip-path="url(#clip0_210_1204)">
<path d="M28.383 1.90101V37.6762C25.2311 37.2194 22.349 35.6427 20.2644 33.2348C18.1798 30.8269 17.0321 27.7489 17.0314 24.564V13.2525H15.1381C13.3982 13.2571 11.6746 12.9167 10.0671 12.2509C8.45955 11.5851 7.00003 10.6071 5.77295 9.37355C3.74477 7.35645 2.42969 4.73298 2.02716 1.90101H28.383ZM30.2763 0.0078125H0C0 8.36804 6.77776 15.1457 15.1381 15.1457V24.5647C15.1381 32.925 21.9159 39.7026 30.2763 39.7026V0.0078125Z" fill="white"/>
<path d="M35.7839 2.02001C38.0419 2.27406 40.1858 3.14768 41.9782 4.54428C42.4374 4.89955 42.8714 5.28637 43.2768 5.70193C40.8797 4.77186 38.3511 4.22478 35.7839 4.08079V2.02001ZM34.3527 0.046875C34.1984 0.046875 34.0444 0.049446 33.8906 0.054588V5.93894C34.044 5.93566 34.198 5.93403 34.3527 5.93403C39.3597 5.92777 44.2291 7.57231 48.2069 10.613C46.5423 4.52324 40.9699 0.046875 34.3527 0.046875Z" fill="white"/>
<path d="M35.7867 11.5089L35.9108 11.5201H35.929C35.976 11.5236 36.023 11.5278 36.0692 11.5327H36.0798H36.0875C36.1394 11.5376 36.1913 11.5432 36.2424 11.5496H36.2537H36.2656C36.3105 11.5538 36.3651 11.5608 36.4233 11.5678H36.4346H36.4458C36.4794 11.5713 36.5159 11.5755 36.5411 11.579L36.5685 11.5832L36.5965 11.5867C36.6477 11.5923 36.7094 11.6007 36.7683 11.6092H36.776H36.7838C36.8321 11.6155 36.8784 11.6225 36.924 11.6295H36.9352H36.9457L37.1771 11.666L37.3076 11.6877H37.3223H37.337C37.4352 11.7045 37.5418 11.7242 37.642 11.7431H37.6462C37.7107 11.7557 37.776 11.7683 37.8447 11.7831H37.8524H37.8601C37.94 11.7992 38.0088 11.8132 38.0705 11.8272H38.081H38.0922C38.1588 11.8413 38.2324 11.8581 38.3026 11.8756C38.3951 11.8966 38.4821 11.917 38.5613 11.938H38.5683H38.5753C38.63 11.9513 38.684 11.9647 38.7373 11.9794H38.7464H38.7548C38.8081 11.9927 38.8607 12.0074 38.914 12.0222H38.9189H38.9224L39.0234 12.0502H39.0332H39.0437C39.1138 12.0691 39.2029 12.0951 39.2856 12.1203L39.2997 12.1245L39.3144 12.1287L39.4308 12.1638L39.4616 12.1729C39.5142 12.189 39.5675 12.2059 39.6201 12.2234H39.6264C39.6965 12.2451 39.7667 12.2676 39.8319 12.2935H39.8396H39.8473L39.9455 12.3265H39.9525H39.9588L40.099 12.3735L40.2294 12.4204H40.2336L40.3094 12.4478H40.3136C40.7343 12.6034 41.155 12.7759 41.5631 12.9617L41.7139 13.0319L41.7209 13.0354L41.7279 13.0389C41.9383 13.1363 42.1486 13.2429 42.366 13.3544L42.4221 13.3839L42.4887 13.4196L42.495 13.4231L42.502 13.4266C42.7825 13.5746 43.0475 13.7274 43.3 13.8803H43.3056L43.3119 13.8838C43.3589 13.9119 43.3904 13.9315 43.4171 13.9483L43.4311 13.9574L43.4458 13.9665C43.7011 14.1236 43.9591 14.2926 44.2171 14.4686C44.2709 14.506 44.3249 14.5439 44.3791 14.5822L44.3868 14.5878L44.3952 14.5941L44.4955 14.6642L44.5116 14.6761L44.5292 14.6888L44.5712 14.7189L44.607 14.7456H44.6112H44.6161C44.6596 14.7771 44.7059 14.8115 44.7564 14.8514L44.7599 14.8549H44.7641L44.9807 15.0204L44.9899 15.0274L44.999 15.0345L45.1203 15.1291C45.1602 15.1621 45.2002 15.1936 45.2409 15.2259C45.2774 15.2553 45.311 15.2848 45.3496 15.3156L45.3657 15.3282L45.3811 15.3416L45.4646 15.4117L45.4751 15.4208L45.4849 15.4285L45.5992 15.526C45.8334 15.7251 46.0704 15.939 46.3053 16.162C46.4154 16.2671 46.5157 16.366 46.6124 16.4635C46.6676 16.5182 46.7223 16.5736 46.7765 16.6296C46.8698 16.7264 46.9679 16.8295 47.0619 16.9312L47.0661 16.9361L47.071 16.941C47.125 16.9992 47.1699 17.0476 47.2113 17.0931L47.2414 17.1261L47.3038 17.1962L47.3543 17.253C47.4083 17.3154 47.4623 17.3771 47.5163 17.4402L47.5464 17.4753L47.5941 17.5314L47.6011 17.5398L47.6081 17.5482C47.6783 17.6344 47.7603 17.7312 47.8521 17.8448C48.0436 18.0832 48.2336 18.3321 48.4131 18.5846C48.4937 18.6967 48.5737 18.8103 48.6501 18.9232L48.6578 18.9344L48.6655 18.9457C48.695 18.9877 48.7237 19.0298 48.7532 19.0747C48.8191 19.1728 48.8815 19.2689 48.939 19.3594L48.9432 19.3657L48.9474 19.372C48.9825 19.426 49.0126 19.4744 49.04 19.5185L49.0484 19.5326L49.0575 19.5459L49.1101 19.6314V19.6349V19.6391C49.1213 19.6574 49.1325 19.6749 49.143 19.6931C49.1536 19.7114 49.1655 19.731 49.1774 19.7492C49.4805 20.2517 49.7581 20.7691 50.009 21.2995V21.303L50.0791 21.4433C50.0953 21.4776 50.1107 21.5134 50.1261 21.5464L50.131 21.5576L50.1359 21.5681C50.1626 21.627 50.1885 21.6852 50.2138 21.7434V21.7469V21.7511C50.239 21.8079 50.2629 21.864 50.2839 21.9208L50.2888 21.9327L50.2937 21.9446C50.3512 22.0772 50.408 22.2174 50.4683 22.3717V22.3787V22.3864C50.4886 22.439 50.509 22.4916 50.5286 22.5441V22.5526V22.5617C50.5763 22.6858 50.6247 22.8183 50.6766 22.9677V22.9712C50.6948 23.0231 50.7123 23.0742 50.7299 23.1282C50.7754 23.2615 50.8224 23.4087 50.8785 23.5882V23.5945C50.8897 23.6296 50.9002 23.6646 50.9101 23.6997L50.9199 23.7313V23.7376V23.7446C50.9388 23.807 50.9577 23.8757 50.9781 23.9465C50.9984 24.0173 51.0138 24.0727 51.0307 24.1365V24.1478V24.1583C51.0391 24.1891 51.0468 24.2193 51.0545 24.2501V24.2536V24.2571L51.0629 24.2887L51.0945 24.41L51.1316 24.5608V24.5671V24.5727C51.145 24.6246 51.1583 24.6807 51.1709 24.7375V24.8314V24.837L51.1772 24.8679C51.1926 24.9324 51.2074 24.9969 51.2214 25.0628V25.0698V25.0775C51.2312 25.1231 51.241 25.1687 51.2508 25.2178C51.3546 25.7163 51.4367 26.2205 51.4942 26.7162V26.7281V26.74C51.5005 26.7898 51.5068 26.8487 51.5138 26.9111V26.9223V26.9343C51.5187 26.9742 51.5236 27.0261 51.5285 27.0745V27.0906V27.1075C51.5327 27.1432 51.5362 27.1902 51.5404 27.2407V27.2533V27.2708C51.5404 27.3122 51.5482 27.3529 51.551 27.3942V27.4062C51.5552 27.4602 51.5594 27.5134 51.5629 27.5674C51.5629 27.5934 51.5629 27.6193 51.5685 27.6453C51.5685 27.6586 51.5685 27.6726 51.5685 27.6859V27.6944C51.5685 27.7399 51.5741 27.7855 51.5762 27.8311V27.85C51.5923 28.1571 51.6007 28.4657 51.6007 28.7672C51.5955 31.5163 50.9364 34.2247 49.6779 36.6689C48.4194 39.113 46.5975 41.2227 44.3628 42.8238C42.128 44.425 39.5444 45.4715 36.8253 45.8772C34.1063 46.2828 31.3297 46.0358 28.7249 45.1567C29.2391 45.1945 29.7573 45.2137 30.2795 45.2142H35.7895V34.5779C37.0849 34.2539 38.2352 33.5067 39.0579 32.4549C39.8806 31.4031 40.3287 30.1067 40.3311 28.7714C40.3311 28.492 40.3122 28.213 40.2743 27.9363C40.1045 26.7557 39.587 25.6525 38.7877 24.7673C37.9885 23.882 36.9438 23.2548 35.7867 22.9656V11.5089ZM34.3555 9.55469C34.2489 9.55469 34.1452 9.55469 34.0372 9.55469H33.8969V24.7171C34.0504 24.7006 34.2047 24.6924 34.359 24.6926C35.3415 24.6936 36.2907 25.0486 37.0327 25.6924C37.7747 26.3363 38.2599 27.226 38.3993 28.1985C38.4256 28.3893 38.4388 28.5816 38.4386 28.7742C38.438 29.8559 38.008 30.8931 37.2431 31.658C36.4781 32.4228 35.4408 32.8526 34.359 32.853C34.2047 32.8532 34.0504 32.845 33.8969 32.8284V43.321H30.2767C25.6947 43.3263 21.2703 41.6488 17.8438 38.6069C19.5467 41.4677 21.9641 43.8366 24.8589 45.4813C27.7536 47.1259 31.0262 47.9898 34.3555 47.9881C44.9695 47.9881 53.5732 39.3852 53.5732 28.7714C53.5732 28.4299 53.5634 28.0912 53.5459 27.7547C53.5459 27.6958 53.5402 27.6376 53.5367 27.5801L53.5283 27.4538C53.5241 27.3879 53.5192 27.3234 53.5143 27.2575C53.5094 27.1916 53.5045 27.146 53.4996 27.0892C53.4947 27.0324 53.4898 26.9665 53.4827 26.9055C53.4757 26.8445 53.4708 26.7772 53.4638 26.7134C53.4568 26.6496 53.4484 26.5732 53.4393 26.4988C53.3734 25.9379 53.2834 25.3832 53.1693 24.8349C53.1574 24.7774 53.1455 24.7213 53.1329 24.6652C53.1174 24.5909 53.1006 24.518 53.0838 24.4444C53.0838 24.4338 53.0782 24.4219 53.0761 24.4107C53.0599 24.3406 53.0431 24.2705 53.0256 24.2003L52.9877 24.0468C52.9723 23.9858 52.9562 23.9262 52.9407 23.8659L52.9071 23.7397C52.8874 23.6695 52.8671 23.5952 52.8475 23.5237C52.8278 23.4522 52.8019 23.3638 52.7773 23.2839C52.7612 23.2299 52.7451 23.1752 52.7283 23.1219C52.6757 22.9501 52.621 22.7783 52.5628 22.6087C52.5424 22.5491 52.5228 22.4895 52.5018 22.4291C52.4478 22.2756 52.3924 22.1227 52.3342 21.9713C52.3096 21.9054 52.2844 21.8402 52.2585 21.7742C52.1947 21.6095 52.128 21.4454 52.0579 21.2834C52.0299 21.2133 52.0004 21.1432 51.9703 21.0773C51.9401 21.0114 51.9086 20.937 51.8763 20.8669C51.8574 20.8234 51.837 20.7793 51.8167 20.7358C51.7915 20.6811 51.7662 20.6264 51.7403 20.5717C51.462 19.9822 51.1536 19.4074 50.8161 18.8496C50.7902 18.8068 50.7649 18.7634 50.739 18.7213C50.713 18.6792 50.6927 18.647 50.6688 18.6098C50.6303 18.5467 50.591 18.4843 50.5504 18.4226C50.4802 18.3153 50.4101 18.2087 50.34 18.1028C50.3035 18.0488 50.2699 17.9949 50.2306 17.9423C50.1423 17.8118 50.0513 17.6824 49.9578 17.5538C49.7568 17.2733 49.5486 16.9996 49.3331 16.7327C49.2433 16.6205 49.1522 16.5097 49.0596 16.4004L48.9621 16.2854C48.9018 16.2152 48.8408 16.1451 48.7798 16.075C48.742 16.0322 48.7034 15.9895 48.6655 15.946C48.6557 15.9355 48.6459 15.9257 48.6368 15.9144C48.5793 15.8506 48.5211 15.7875 48.4636 15.7251C48.3584 15.6108 48.2532 15.4986 48.1438 15.3871C48.0821 15.324 48.0211 15.2616 47.9587 15.1992C47.8451 15.0849 47.7301 14.9727 47.613 14.8606C47.3592 14.6193 47.0977 14.383 46.8298 14.1552L46.6896 14.0346C46.651 14.0016 46.611 13.9694 46.5718 13.9371C46.5325 13.9048 46.4743 13.8565 46.4245 13.8158C46.3747 13.7751 46.3418 13.7506 46.3011 13.7169C46.2485 13.6756 46.1966 13.6342 46.1433 13.5942C46.0625 13.5311 45.9813 13.4689 45.9 13.4077C45.8397 13.3621 45.7801 13.3172 45.7198 13.2738L45.6174 13.1987C45.5719 13.1651 45.5256 13.1321 45.4772 13.1006C45.4141 13.055 45.351 13.0115 45.2879 12.9674C45.0074 12.7729 44.7222 12.5859 44.4324 12.4064C44.3812 12.3735 44.33 12.3419 44.2782 12.311C43.9872 12.1343 43.6898 11.9661 43.389 11.8055C43.3414 11.7795 43.2923 11.7543 43.2432 11.7284C43.0094 11.6059 42.7708 11.4876 42.5273 11.3736C42.467 11.345 42.4067 11.317 42.3464 11.2894C41.8934 11.0819 41.4313 10.8918 40.9601 10.7194C40.89 10.6927 40.8198 10.6682 40.7497 10.6429C40.7455 10.6409 40.741 10.6395 40.7364 10.6387L40.5744 10.5819C40.5296 10.5658 40.4833 10.5511 40.4342 10.5356L40.1993 10.4571C40.139 10.4375 40.078 10.4178 40.0177 10.3996L39.8445 10.3477C39.7484 10.3183 39.651 10.2902 39.5542 10.2636L39.4139 10.225L39.2267 10.1752L39.036 10.1262C38.935 10.1002 38.8341 10.0771 38.7331 10.056C38.651 10.0364 38.5676 10.0175 38.4842 9.99994C38.4007 9.98241 38.318 9.96348 38.2345 9.94665C38.1511 9.92982 38.0747 9.91369 37.994 9.89897C37.879 9.87653 37.7619 9.85479 37.6434 9.83586C37.588 9.82534 37.5326 9.81623 37.4765 9.80711L37.2213 9.76785C37.1582 9.75733 37.0944 9.74821 37.0306 9.7398C36.9668 9.73139 36.8861 9.71947 36.8125 9.71105C36.7606 9.70334 36.7087 9.69773 36.6554 9.69212C36.5853 9.68371 36.5194 9.67529 36.4514 9.66828L36.2677 9.64865C36.2046 9.64234 36.1408 9.63602 36.077 9.63112C36.0012 9.62481 35.9255 9.61779 35.8498 9.61289C35.7853 9.60658 35.72 9.60237 35.6555 9.59816C35.591 9.59395 35.5286 9.58975 35.4655 9.58694L35.3042 9.57853L35.103 9.56871H35.0974C34.9571 9.5631 34.8169 9.5596 34.6767 9.55749C34.5708 9.55749 34.4663 9.55749 34.3576 9.55749L34.3555 9.55469Z" fill="white"/>
<path d="M61.4844 10.6398V9.46875H69.4018V10.6398H66.1082V19.9811H64.7926V10.6398H61.4844Z" fill="white"/>
<path d="M72.2526 15.339V19.9811H70.9844V9.46875H72.2526V14.0759H71.9962C72.2386 13.3613 72.5831 12.8497 73.0296 12.5412C73.4761 12.2327 74.0009 12.0787 74.6039 12.0791C75.0943 12.0695 75.5793 12.1824 76.0141 12.4071C76.4281 12.6316 76.7626 12.9763 76.9726 13.3949C77.2027 13.8351 77.3179 14.3888 77.3183 15.056V19.98H76.0429V15.1551C76.0429 14.544 75.8831 14.0678 75.5636 13.7265C75.2441 13.3852 74.8078 13.2147 74.2547 13.2151C73.8992 13.2088 73.5477 13.2903 73.2321 13.4524C72.9269 13.6144 72.6768 13.8621 72.5132 14.1643C72.3399 14.4807 72.253 14.8723 72.2526 15.339Z" fill="white"/>
<path d="M79.9883 10.7309C79.8729 10.7322 79.7583 10.7112 79.6513 10.6692C79.5442 10.6271 79.4469 10.5648 79.3648 10.4858C79.2807 10.4112 79.2138 10.3202 79.1685 10.2186C79.1231 10.1171 79.1003 10.0075 79.1016 9.89684C79.1002 9.78677 79.1229 9.67767 79.1683 9.57681C79.2137 9.47595 79.2807 9.38565 79.3648 9.31195C79.4473 9.23383 79.5448 9.17228 79.6518 9.13084C79.7588 9.0894 79.8732 9.06888 79.9883 9.07045C80.1048 9.06841 80.2204 9.0887 80.3288 9.13013C80.4371 9.17157 80.536 9.23336 80.6197 9.31195C80.7038 9.38575 80.7707 9.47607 80.8161 9.5769C80.8615 9.67774 80.8842 9.7868 80.8829 9.89684C80.8841 10.0075 80.8612 10.1171 80.8159 10.2186C80.7705 10.32 80.7037 10.4111 80.6197 10.4858C80.5364 10.5653 80.4377 10.6278 80.3293 10.6699C80.2209 10.7119 80.105 10.7327 79.9883 10.7309ZM79.3467 19.7811V12.0479H80.6306V19.7811H79.3467Z" fill="white"/>
<path d="M84.9515 19.9804C84.483 19.9871 84.0185 19.8948 83.59 19.7097C83.1971 19.5388 82.8621 19.2622 82.6244 18.9123C82.3852 18.5623 82.2656 18.1345 82.2656 17.629C82.2656 17.1891 82.3545 16.8329 82.5323 16.5603C82.7089 16.2886 82.9536 16.0653 83.2432 15.9116C83.5536 15.7472 83.8864 15.627 84.2316 15.5546C84.5948 15.4768 84.9609 15.4144 85.33 15.3673C85.8084 15.307 86.1936 15.2608 86.4858 15.2285C86.778 15.1962 86.9937 15.1418 87.1328 15.0652C87.2727 14.9893 87.3427 14.8565 87.3427 14.6667V14.6195C87.3506 14.3423 87.2858 14.0678 87.1543 13.822C87.0277 13.5991 86.8323 13.4207 86.5959 13.3122C86.3495 13.1955 86.0438 13.1372 85.6786 13.1372C85.349 13.129 85.0212 13.1868 84.7154 13.3069C84.4683 13.4062 84.2454 13.555 84.0612 13.7439C83.9031 13.905 83.7829 14.098 83.709 14.3091L82.4791 13.997C82.6165 13.5649 82.8686 13.1759 83.2098 12.8694C83.5357 12.5854 83.9199 12.3724 84.3369 12.2447C85.0741 12.0129 85.8627 11.9842 86.6156 12.1618C86.9582 12.2383 87.2843 12.3732 87.5789 12.5603C87.8919 12.763 88.1456 13.0416 88.3149 13.3688C88.5043 13.7188 88.5991 14.1686 88.5995 14.7181V19.8171H87.3552V18.7612H87.2841C87.1739 18.9677 87.0296 19.1551 86.8572 19.316C86.6381 19.5216 86.3796 19.6832 86.0966 19.7914C85.7837 19.9174 85.402 19.9804 84.9515 19.9804ZM85.1578 18.8843C85.6362 18.8843 86.0368 18.7953 86.3597 18.6171C86.6652 18.4553 86.9187 18.214 87.0921 17.92C87.2546 17.6459 87.3403 17.3349 87.3409 17.0182V15.9775C87.2889 16.0329 87.1806 16.0843 87.0174 16.1303C86.831 16.1809 86.642 16.2218 86.4512 16.2528C86.2359 16.2894 86.0226 16.3205 85.8114 16.3462L85.2732 16.4121C84.9822 16.4464 84.6956 16.5104 84.4182 16.6029C84.1748 16.6795 83.9549 16.8143 83.7784 16.9949C83.6189 17.1664 83.5392 17.3978 83.5392 17.689C83.5318 17.9241 83.6055 18.1548 83.7485 18.3441C83.8965 18.5285 84.0952 18.6681 84.3213 18.7466C84.5892 18.842 84.8727 18.8887 85.1578 18.8843Z" fill="white"/>
<path d="M93.7209 22.9556C93.149 22.9556 92.6478 22.88 92.2174 22.7287C91.8215 22.5977 91.4576 22.3856 91.1492 22.1061C90.8779 21.8566 90.6625 21.5529 90.517 21.2149L91.5846 20.7046C91.7001 20.8974 91.8368 21.0769 91.9923 21.2396C92.1824 21.4334 92.4109 21.5858 92.6634 21.687C92.9423 21.8045 93.2948 21.8633 93.7209 21.8633C94.3511 21.8633 94.8663 21.7095 95.2665 21.4018C95.6666 21.0942 95.8657 20.6211 95.8638 19.9827V18.513H95.7722C95.6418 18.7136 95.4963 18.9041 95.3368 19.0826C95.1362 19.3015 94.8922 19.4764 94.6201 19.5965C94.32 19.7364 93.9381 19.8063 93.4746 19.8063C92.879 19.816 92.2925 19.6599 91.7813 19.3554C91.2851 19.0544 90.8942 18.6186 90.6086 18.048C90.3231 17.4773 90.1801 16.7915 90.1797 15.9904C90.1797 15.1932 90.3203 14.4999 90.6015 13.9105C90.8827 13.321 91.2727 12.8631 91.7713 12.5366C92.2699 12.2101 92.8448 12.0469 93.4958 12.0469C93.9598 12.0469 94.3417 12.1215 94.6414 12.2709C94.9158 12.4011 95.1616 12.5841 95.3645 12.8094C95.5261 12.9901 95.672 13.1843 95.8006 13.3896H95.8915V12.1615H97.1074V20.0391C97.1074 20.7199 96.9563 21.2756 96.6543 21.7064C96.352 22.1378 95.9257 22.4682 95.4313 22.654C94.8853 22.8605 94.305 22.9628 93.7209 22.9556ZM93.6784 18.7052C94.151 18.7052 94.5528 18.5957 94.8836 18.3766C95.2242 18.1446 95.4862 17.8155 95.6351 17.4325C95.8065 17.0225 95.8919 16.5356 95.8915 15.9716C95.8915 15.417 95.8072 14.9289 95.6387 14.5072C95.4909 14.1122 95.2311 13.7685 94.8907 13.5178C94.5603 13.2795 94.1562 13.1605 93.6784 13.1609C93.2006 13.1613 92.7942 13.2836 92.459 13.5278C92.1178 13.7836 91.8561 14.13 91.7039 14.5271C91.5258 14.9875 91.4387 15.4778 91.4475 15.971C91.4475 16.5197 91.5342 16.9998 91.7075 17.4113C91.8608 17.7965 92.1246 18.1284 92.4661 18.3654C92.7969 18.592 93.201 18.7052 93.6784 18.7052Z" fill="white"/>
<path d="M102.448 19.9808C101.737 19.9808 101.115 19.8155 100.583 19.4851C100.044 19.146 99.6119 18.6639 99.3383 18.0942C99.0395 17.4982 98.8902 16.8095 98.8906 16.0281C98.8906 15.2327 99.0398 14.5356 99.3383 13.9369C99.6112 13.366 100.043 12.8828 100.583 12.5431C101.117 12.2123 101.739 12.0469 102.448 12.0469C103.158 12.0469 103.781 12.2123 104.317 12.5431C104.86 12.8816 105.294 13.365 105.569 13.9369C105.867 14.536 106.016 15.2331 106.016 16.0281C106.016 16.8088 105.867 17.4975 105.569 18.0942C105.293 18.6649 104.859 19.1471 104.317 19.4851C103.781 19.8151 103.158 19.9804 102.448 19.9808ZM102.448 18.878C102.965 18.878 103.394 18.7485 103.735 18.4896C104.083 18.2212 104.347 17.8619 104.497 17.4528C104.668 16.9968 104.752 16.514 104.747 16.0281C104.752 15.5374 104.668 15.0498 104.497 14.5889C104.348 14.1756 104.084 13.8119 103.735 13.5392C103.395 13.2779 102.966 13.1473 102.448 13.1473C101.931 13.1473 101.505 13.2779 101.172 13.5392C100.825 13.8115 100.562 14.1728 100.411 14.583C100.236 15.0444 100.15 15.5336 100.156 16.0258C100.151 16.5121 100.237 16.9951 100.411 17.4504C100.562 17.8581 100.824 18.2169 101.169 18.4873C101.505 18.7482 101.931 18.8786 102.448 18.8786V18.878Z" fill="white"/>
<path d="M61.4297 40.0028V27.6719H66.1619C67.0439 27.6719 67.7813 27.8098 68.3741 28.0858C68.9668 28.3617 69.4123 28.741 69.7105 29.2236C70.0119 29.7209 70.1667 30.2934 70.1571 30.8749C70.1571 31.3716 70.0636 31.7979 69.8767 32.1537C69.6953 32.502 69.4327 32.8014 69.111 33.0264C68.78 33.2579 68.4081 33.4245 68.0151 33.5175V33.6171C68.4658 33.6458 68.9023 33.7866 69.2849 34.0267C69.6913 34.2794 70.0271 34.6311 70.2609 35.0488C70.5119 35.4842 70.6374 36.0082 70.6374 36.6209C70.6478 37.2341 70.4857 37.8379 70.1698 38.3634C69.8584 38.8732 69.391 39.2744 68.7674 39.5672C68.1438 39.8599 67.3592 40.0061 66.4136 40.0056L61.4297 40.0028ZM63.6307 32.9177H65.9214C66.2835 32.9241 66.6426 32.8506 66.9731 32.7023C67.2675 32.5711 67.5195 32.3605 67.7009 32.0941C67.8821 31.815 67.9742 31.4875 67.9653 31.1548C67.9715 30.9307 67.9289 30.7079 67.8404 30.502C67.7519 30.2961 67.6196 30.1119 67.4527 29.9623C67.1106 29.6508 66.6116 29.4951 65.9557 29.4951H63.6307V32.9177ZM63.6307 38.1726H66.0847C66.885 38.1726 67.471 38.0155 67.8426 37.7012C68.024 37.5522 68.169 37.3635 68.2662 37.1498C68.3634 36.936 68.4104 36.7027 68.4035 36.468C68.4092 36.1188 68.3143 35.7754 68.1301 35.4788C67.94 35.1818 67.6707 34.9439 67.3525 34.7921C66.978 34.6154 66.5674 34.5289 66.1535 34.5395H63.6293L63.6307 38.1726Z" fill="white"/>
<path d="M75.0362 40.1911C74.4946 40.1996 73.9575 40.0925 73.4606 39.8768C73.0114 39.6807 72.6286 39.3586 72.3584 38.9494C72.0878 38.5412 71.9527 38.0363 71.9531 37.4349C71.9531 36.9167 72.0497 36.4893 72.2427 36.1526C72.4316 35.8198 72.7037 35.5418 73.0322 35.3458C73.3837 35.137 73.7644 34.9821 74.1618 34.8864C74.5886 34.7802 75.0226 34.7054 75.4604 34.6626C76.0003 34.6022 76.4359 34.5499 76.7673 34.5054C77.0988 34.461 77.34 34.3892 77.491 34.2901C77.5656 34.2412 77.626 34.1733 77.6659 34.0935C77.7058 34.0136 77.7238 33.9246 77.7181 33.8355V33.7857C77.726 33.5237 77.6617 33.2645 77.5323 33.0365C77.4045 32.8263 77.2153 32.6603 76.9903 32.5609C76.7109 32.442 76.4089 32.3855 76.1054 32.3953C75.794 32.389 75.4843 32.4438 75.1939 32.5567C74.9523 32.6506 74.7347 32.7976 74.5573 32.9867C74.4005 33.1563 74.2831 33.3584 74.2137 33.5788L72.2182 33.2645C72.3484 32.7399 72.6144 32.259 72.9895 31.8699C73.3692 31.4905 73.8303 31.2026 74.3378 31.0281C74.9085 30.8316 75.5089 30.735 76.1125 30.7426C76.5709 30.7422 77.0277 30.7978 77.4727 30.9082C77.9027 31.0125 78.3105 31.1933 78.6766 31.442C79.0368 31.6896 79.3306 32.0221 79.5321 32.4101C79.7447 32.8099 79.8509 33.2996 79.8504 33.879V40.0108H77.7911V38.7425H77.716C77.5752 39.0134 77.3877 39.2572 77.1621 39.4629C76.9057 39.695 76.6066 39.8749 76.2814 39.9926C75.8817 40.1332 75.4598 40.2004 75.0362 40.1911ZM75.5824 38.6022C75.9801 38.6122 76.3739 38.5225 76.7281 38.3412C77.0342 38.1828 77.2914 37.9439 77.472 37.6503C77.6451 37.3662 77.7355 37.0394 77.7329 36.7067V35.6475C77.6283 35.7183 77.5119 35.7701 77.3893 35.8004C77.2128 35.852 77.0334 35.8934 76.8522 35.9246C76.6503 35.961 76.4488 35.9943 76.2478 36.0242C76.0465 36.0543 75.8692 36.0782 75.7142 36.0943C75.4211 36.133 75.1336 36.2067 74.8581 36.3139C74.6249 36.4004 74.4162 36.5425 74.2502 36.7278C74.095 36.9204 74.0156 37.1632 74.0272 37.4103C74.0192 37.6442 74.089 37.8742 74.2256 38.0641C74.3662 38.2468 74.5555 38.3859 74.7718 38.4654C75.0315 38.5616 75.3069 38.608 75.5838 38.6022H75.5824Z" fill="white"/>
<path d="M86.387 30.8698V32.5478H81.1016V30.8698H86.387ZM82.466 28.625H84.6004V37.4246C84.6004 37.752 84.6705 37.9891 84.8107 38.1359C84.951 38.2853 85.1873 38.3597 85.5175 38.3597C85.6227 38.3597 85.758 38.3513 85.9235 38.3344C86.0883 38.3183 86.2208 38.3015 86.3204 38.2853L86.5847 39.9486C86.3592 40.0059 86.1298 40.046 85.8982 40.0685C85.662 40.0929 85.4247 40.1053 85.1873 40.1057C84.2991 40.1057 83.6234 39.8934 83.1602 39.4688C82.697 39.0441 82.4653 38.4317 82.4653 37.6315L82.466 28.625Z" fill="white"/>
<path d="M89.0771 29.5619C88.914 29.5653 88.7518 29.5364 88.5999 29.4768C88.4481 29.4172 88.3095 29.3281 88.1922 29.2146C88.0761 29.1088 87.9837 28.9795 87.921 28.8354C87.8583 28.6913 87.8267 28.5356 87.8283 28.3785C87.8255 28.2212 87.8566 28.0653 87.9194 27.9211C87.9822 27.7769 88.0752 27.648 88.1922 27.543C88.4312 27.3179 88.749 27.196 89.0771 27.2034C89.4066 27.196 89.726 27.3179 89.9669 27.543C90.0848 27.6474 90.1788 27.7762 90.2423 27.9204C90.3058 28.0646 90.3375 28.2209 90.335 28.3785C90.3363 28.536 90.3041 28.692 90.2407 28.8361C90.1772 28.9803 90.0839 29.1093 89.9669 29.2146C89.7279 29.4436 89.4079 29.5685 89.0771 29.5619ZM88.0099 40.0058V30.8695H90.1443V40.0058H88.0099Z" fill="white"/>
<path d="M95.8098 40.1962C95.1677 40.2068 94.529 40.1015 93.9243 39.8854C93.4051 39.7003 92.9412 39.3865 92.576 38.9735C92.2213 38.5591 91.9917 38.0523 91.9141 37.5122L93.9404 37.2148C94.0447 37.667 94.2571 38.0049 94.5778 38.2285C94.8985 38.452 95.3175 38.5638 95.835 38.5638C96.359 38.5638 96.7739 38.4588 97.0796 38.2488C97.3853 38.0388 97.5384 37.7795 97.5388 37.4709C97.5412 37.3453 97.5145 37.2209 97.4607 37.1075C97.407 36.9941 97.3276 36.8946 97.2289 36.8171C97.0223 36.6468 96.7147 36.5173 96.3062 36.4284L94.751 36.0973C93.8853 35.9103 93.2374 35.6014 92.8074 35.1706C92.3773 34.7399 92.1623 34.1881 92.1623 33.5151C92.151 32.9879 92.3137 32.4717 92.625 32.0462C92.9345 31.6304 93.3648 31.3077 93.9159 31.0781C94.467 30.8485 95.1095 30.7339 95.8434 30.7344C96.5446 30.7344 97.1497 30.838 97.6587 31.0451C98.1356 31.2296 98.5592 31.5297 98.8914 31.9185C99.2062 32.2987 99.4184 32.7532 99.5077 33.2387L97.5802 33.532C97.4956 33.1989 97.3036 32.903 97.034 32.6902C96.7535 32.4563 96.3677 32.3394 95.8764 32.3394C95.4183 32.3394 95.0406 32.4402 94.7433 32.6417C94.446 32.8433 94.2969 33.0984 94.2959 33.4071C94.2928 33.5336 94.3188 33.6591 94.3719 33.774C94.425 33.8888 94.5039 33.9899 94.6023 34.0693C94.8061 34.2405 95.1315 34.3756 95.5784 34.4748L97.1504 34.8059C98.0212 34.9929 98.6677 35.2908 99.0898 35.6996C99.5119 36.1083 99.7223 36.6351 99.7209 37.2801C99.7316 37.8324 99.5552 38.3722 99.2202 38.8114C98.8865 39.2468 98.426 39.5875 97.8389 39.8335C97.2518 40.0795 96.5754 40.2004 95.8098 40.1962Z" fill="white"/>
<path d="M105.856 30.8698V32.5478H100.57V30.8698H105.856ZM101.935 28.625H104.069V37.4246C104.069 37.752 104.139 37.9891 104.279 38.1359C104.42 38.2828 104.656 38.3573 104.987 38.3597C105.091 38.3597 105.226 38.3513 105.392 38.3344C105.558 38.3183 105.69 38.3015 105.789 38.2853L106.054 39.9486C105.828 40.0058 105.599 40.0459 105.367 40.0685C105.131 40.0929 104.893 40.1053 104.656 40.1057C103.768 40.1057 103.092 39.8934 102.629 39.4688C102.166 39.0441 101.934 38.4317 101.935 37.6315L101.935 28.625Z" fill="white"/>
<path d="M110.187 40.1911C109.645 40.1995 109.108 40.0924 108.611 39.8768C108.161 39.681 107.778 39.3589 107.507 38.9494C107.237 38.5412 107.102 38.0363 107.102 37.4349C107.102 36.9167 107.198 36.4893 107.391 36.1526C107.58 35.8198 107.852 35.5418 108.181 35.3458C108.533 35.1368 108.915 34.9819 109.313 34.8864C109.74 34.7802 110.174 34.7054 110.612 34.6626C111.152 34.6022 111.588 34.5499 111.919 34.5054C112.249 34.461 112.49 34.3892 112.642 34.2901C112.717 34.2412 112.777 34.1734 112.817 34.0935C112.857 34.0137 112.876 33.9247 112.87 33.8355V33.7857C112.878 33.5236 112.813 33.2644 112.684 33.0365C112.556 32.8261 112.367 32.6601 112.142 32.5609C111.862 32.442 111.56 32.3855 111.257 32.3953C110.945 32.389 110.636 32.4438 110.345 32.5567C110.103 32.6504 109.885 32.7974 109.708 32.9867C109.551 33.1561 109.434 33.3584 109.365 33.5788L107.371 33.2645C107.501 32.7399 107.767 32.259 108.142 31.8699C108.522 31.4905 108.983 31.2026 109.49 31.0281C110.061 30.8316 110.662 30.735 111.265 30.7426C111.724 30.7422 112.181 30.7978 112.626 30.9082C113.056 31.0125 113.463 31.1933 113.829 31.442C114.189 31.6899 114.482 32.0223 114.683 32.4101C114.895 32.8099 115.001 33.2996 115.001 33.879V40.0108H112.942V38.7425H112.867C112.726 39.0133 112.538 39.2571 112.313 39.4629C112.056 39.695 111.757 39.8749 111.432 39.9926C111.032 40.1332 110.61 40.2005 110.187 40.1911ZM110.733 38.6022C111.131 38.6122 111.524 38.5225 111.879 38.3412C112.185 38.1826 112.442 37.9438 112.623 37.6503C112.796 37.366 112.886 37.0393 112.883 36.7067V35.6475C112.779 35.7182 112.663 35.77 112.541 35.8004C112.364 35.852 112.184 35.8934 112.003 35.9246C111.802 35.961 111.6 35.9943 111.399 36.0242C111.197 36.0543 111.02 36.0782 110.865 36.0943C110.572 36.1328 110.285 36.2065 110.009 36.3139C109.776 36.4001 109.567 36.5422 109.401 36.7278C109.246 36.9201 109.166 37.1631 109.178 37.4103C109.17 37.6442 109.24 37.8742 109.376 38.0641C109.517 38.2468 109.706 38.3859 109.922 38.4654C110.182 38.5615 110.457 38.6079 110.733 38.6022Z" fill="white"/>
</g>
<defs>
<clipPath id="clip0_210_1204">
<rect width="115" height="48" fill="white"/>
</clipPath>
</defs>
</svg>
